<svg width="121" height="43" viewBox="0 0 121 43" fill="none" xmlns="http://www.w3.org/2000/svg">
<path fill-rule="evenodd" clip-rule="evenodd" d="M72.0158 0.501495H0.0155334V42.5022H120.016V18.5023H72.0158V0.501495ZM48.9752 17.3894H48.0392C47.4312 17.3894 46.9353 17.2854 46.5513 17.0774C46.1673 16.8534 45.9753 16.4854 45.9753 15.9734C45.9753 15.6854 46.0393 15.4534 46.1673 15.2774C46.2953 15.1014 46.4633 14.9654 46.6713 14.8694C46.8953 14.7734 47.1513 14.7094 47.4393 14.6774C47.7272 14.6294 48.0232 14.6054 48.3272 14.6054C48.5512 14.6054 48.7992 14.6214 49.0712 14.6534C49.3432 14.6694 49.5752 14.6934 49.7672 14.7254V17.3174C49.5432 17.3494 49.2792 17.3734 48.9752 17.3894ZM50.0792 8.26943C49.4712 8.04543 48.7032 7.93344 47.7752 7.93344C47.0553 7.93344 46.3593 7.98944 45.6873 8.10143C45.0153 8.19743 44.4953 8.30943 44.1273 8.43743L44.5353 10.8134C44.8553 10.7014 45.2713 10.6054 45.7833 10.5254C46.3113 10.4454 46.8553 10.4054 47.4152 10.4054C48.2792 10.4054 48.8872 10.5974 49.2392 10.9814C49.5912 11.3494 49.7672 11.8134 49.7672 12.3734V12.7334C49.1752 12.6054 48.4952 12.5414 47.7272 12.5414C47.1193 12.5414 46.5353 12.6054 45.9753 12.7334C45.4153 12.8454 44.9193 13.0374 44.4873 13.3094C44.0553 13.5814 43.7113 13.9414 43.4553 14.3894C43.1993 14.8374 43.0713 15.3894 43.0713 16.0454C43.0713 16.7334 43.1833 17.3174 43.4073 17.7974C43.6313 18.2614 43.9513 18.6454 44.3673 18.9494C44.7833 19.2374 45.2793 19.4454 45.8553 19.5734C46.4473 19.7014 47.1033 19.7654 47.8232 19.7654C48.8792 19.7654 49.8312 19.7014 50.6792 19.5734C51.5272 19.4454 52.1672 19.3334 52.5992 19.2374V12.5174C52.5992 11.8134 52.5192 11.1814 52.3592 10.6214C52.1992 10.0454 51.9352 9.56543 51.5672 9.18143C51.1992 8.78143 50.7032 8.47743 50.0792 8.26943ZM46.7433 7.18944L50.9192 5.17345L49.4552 2.91747L45.6633 5.58145L46.7433 7.18944ZM17.4154 7.09344V4.64546H6.6155V7.09344H10.5275V19.5014H13.5035V7.09344H17.4154ZM28.9594 16.2854C29.2154 15.5494 29.3434 14.7334 29.3434 13.8374C29.3434 12.9574 29.2154 12.1574 28.9594 11.4374C28.7034 10.7014 28.3354 10.0774 27.8554 9.56542C27.3914 9.03743 26.8314 8.63743 26.1754 8.36543C25.5354 8.07744 24.8234 7.93344 24.0394 7.93344C23.2714 7.93344 22.5594 8.07744 21.9034 8.36543C21.2474 8.63743 20.6794 9.03743 20.1994 9.56542C19.7354 10.0774 19.3674 10.7014 19.0954 11.4374C18.8394 12.1574 18.7114 12.9574 18.7114 13.8374C18.7114 14.7334 18.8394 15.5494 19.0954 16.2854C19.3514 17.0054 19.7114 17.6294 20.1754 18.1574C20.6554 18.6854 21.2154 19.0934 21.8554 19.3814C22.5114 19.6694 23.2394 19.8134 24.0394 19.8134C24.8394 19.8134 25.5594 19.6694 26.1994 19.3814C26.8554 19.0934 27.4154 18.6854 27.8794 18.1574C28.3434 17.6294 28.7034 17.0054 28.9594 16.2854ZM22.2394 16.3094C21.8874 15.6854 21.7114 14.8694 21.7114 13.8614C21.7114 12.8534 21.9034 12.0454 22.2874 11.4374C22.6874 10.8134 23.2714 10.5014 24.0394 10.5014C24.8394 10.5014 25.4154 10.8134 25.7674 11.4374C26.1354 12.0454 26.3194 12.8534 26.3194 13.8614C26.3194 14.8694 26.1194 15.6854 25.7194 16.3094C25.3354 16.9334 24.7594 17.2454 23.9914 17.2454C23.1914 17.2454 22.6074 16.9334 22.2394 16.3094ZM38.2473 8.10143C38.8713 8.10143 39.3833 8.19743 39.7833 8.38943C40.1833 8.58143 40.4953 8.86943 40.7193 9.25343C40.9593 9.63742 41.1193 10.1254 41.1993 10.7174C41.2793 11.2934 41.3193 11.9734 41.3193 12.7574V19.5014H38.9193V12.6134C38.9193 12.1654 38.8873 11.8054 38.8233 11.5334C38.7753 11.2614 38.7033 11.0534 38.6073 10.9094C38.5273 10.7654 38.4233 10.6694 38.2953 10.6214C38.1833 10.5734 38.0633 10.5494 37.9353 10.5494C37.7913 10.5494 37.6393 10.5654 37.4793 10.5974C37.3193 10.6134 37.1753 10.6534 37.0473 10.7174C37.0953 11.0214 37.1353 11.3574 37.1673 11.7254C37.1993 12.0934 37.2153 12.5014 37.2153 12.9494V15.2054H34.8153V12.6134C34.8153 11.8454 34.7353 11.3094 34.5753 11.0054C34.4313 10.7014 34.1913 10.5494 33.8553 10.5494C33.7593 10.5494 33.6393 10.5574 33.4953 10.5734C33.3673 10.5894 33.2393 10.6134 33.1113 10.6454V19.5014H30.7114V8.65343C31.3353 8.47743 31.9513 8.34143 32.5593 8.24543C33.1673 8.14943 33.7033 8.10143 34.1673 8.10143C34.5833 8.10143 34.9513 8.15743 35.2713 8.26943C35.6073 8.36543 35.8953 8.53343 36.1353 8.77343C36.4073 8.59743 36.7273 8.44543 37.0953 8.31743C37.4633 8.17343 37.8473 8.10143 38.2473 8.10143ZM59.4872 17.2694C60.2072 17.2694 60.7592 17.2214 61.1432 17.1254C61.5272 17.0134 61.7192 16.7974 61.7192 16.4774C61.7192 16.2694 61.6552 16.0934 61.5272 15.9494C61.4152 15.8054 61.2472 15.6854 61.0232 15.5894C60.8152 15.4774 60.5672 15.3734 60.2792 15.2774C60.0072 15.1814 59.7192 15.0854 59.4152 14.9894C58.9832 14.8614 58.5432 14.7174 58.0952 14.5574C57.6472 14.3814 57.2392 14.1654 56.8712 13.9094C56.5032 13.6534 56.1992 13.3334 55.9592 12.9494C55.7192 12.5494 55.5992 12.0534 55.5992 11.4614C55.5992 10.9814 55.6872 10.5334 55.8632 10.1174C56.0552 9.68542 56.3432 9.30943 56.7272 8.98943C57.1272 8.65343 57.6312 8.39743 58.2392 8.22143C58.8472 8.02943 59.5752 7.93344 60.4232 7.93344C61.1592 7.93344 61.8392 7.98944 62.4632 8.10143C63.1032 8.21343 63.6552 8.37343 64.1191 8.58143L63.6632 11.0774C63.3912 10.9974 62.9672 10.8694 62.3912 10.6934C61.8152 10.5014 61.1672 10.4054 60.4472 10.4054C59.6952 10.4054 59.1832 10.5014 58.9112 10.6934C58.6552 10.8694 58.5272 11.0614 58.5272 11.2694C58.5272 11.4454 58.5832 11.6054 58.6952 11.7494C58.8232 11.8774 58.9832 11.9974 59.1752 12.1094C59.3832 12.2214 59.6152 12.3334 59.8712 12.4454C60.1432 12.5414 60.4312 12.6374 60.7352 12.7334C61.1672 12.8774 61.6152 13.0374 62.0792 13.2134C62.5432 13.3894 62.9592 13.6134 63.3272 13.8854C63.7112 14.1414 64.0231 14.4774 64.2631 14.8934C64.5031 15.2934 64.6231 15.7894 64.6231 16.3814C64.6231 16.8454 64.5351 17.2854 64.3591 17.7014C64.1831 18.1174 63.8871 18.4774 63.4711 18.7814C63.0712 19.0854 62.5432 19.3254 61.8872 19.5014C61.2312 19.6774 60.4232 19.7654 59.4632 19.7654C58.4872 19.7654 57.6552 19.6534 56.9672 19.4294C56.2792 19.2054 55.7272 19.0054 55.3112 18.8294L55.7672 16.3574C56.3272 16.5814 56.9192 16.7894 57.5432 16.9814C58.1832 17.1734 58.8312 17.2694 59.4872 17.2694ZM7.67149 29.3413C7.3515 30.0773 7.1915 30.9493 7.1915 31.9573C7.1915 32.9173 7.33549 33.7653 7.62349 34.5013C7.92749 35.2213 8.34349 35.8213 8.87149 36.3013C9.41548 36.7813 10.0555 37.1493 10.7915 37.4053C11.5435 37.6453 12.3675 37.7653 13.2635 37.7653C13.9355 37.7653 14.5595 37.7173 15.1354 37.6213C15.7114 37.5413 16.2794 37.3973 16.8394 37.1893L16.5514 35.5333C15.9914 35.7253 15.4714 35.8533 14.9914 35.9173C14.5275 35.9653 14.0395 35.9893 13.5275 35.9893C12.8875 35.9893 12.3035 35.9093 11.7755 35.7493C11.2475 35.5893 10.7915 35.3493 10.4075 35.0293C10.0395 34.6933 9.75148 34.2773 9.54348 33.7813C9.33548 33.2693 9.23148 32.6613 9.23148 31.9573C9.23148 31.2213 9.34348 30.5973 9.56748 30.0853C9.79148 29.5573 10.0875 29.1333 10.4555 28.8133C10.8395 28.4773 11.2875 28.2373 11.7995 28.0933C12.3115 27.9333 12.8555 27.8533 13.4315 27.8533C13.8795 27.8533 14.3195 27.8853 14.7515 27.9493C15.1994 27.9973 15.6874 28.1173 16.2154 28.3093L16.6714 26.6053C16.0634 26.4133 15.4874 26.2853 14.9434 26.2213C14.4155 26.1413 13.8795 26.1013 13.3355 26.1013C12.4875 26.1013 11.6875 26.2213 10.9355 26.4613C10.1995 26.6853 9.55148 27.0373 8.99148 27.5173C8.43149 27.9973 7.99149 28.6053 7.67149 29.3413ZM29.0554 31.9333C29.0554 32.8133 28.9274 33.6133 28.6714 34.3333C28.4314 35.0373 28.0874 35.6453 27.6394 36.1573C27.1914 36.6693 26.6554 37.0693 26.0314 37.3573C25.4074 37.6293 24.7274 37.7653 23.9914 37.7653C23.2714 37.7653 22.5994 37.6293 21.9754 37.3573C21.3674 37.0693 20.8394 36.6693 20.3914 36.1573C19.9434 35.6453 19.5914 35.0373 19.3354 34.3333C19.0954 33.6133 18.9754 32.8133 18.9754 31.9333C18.9754 31.0533 19.0954 30.2533 19.3354 29.5333C19.5914 28.8133 19.9434 28.2053 20.3914 27.7093C20.8394 27.1973 21.3674 26.8053 21.9754 26.5333C22.5994 26.2453 23.2714 26.1013 23.9914 26.1013C24.7274 26.1013 25.4074 26.2453 26.0314 26.5333C26.6554 26.8053 27.1914 27.1973 27.6394 27.7093C28.0874 28.2053 28.4314 28.8133 28.6714 29.5333C28.9274 30.2533 29.0554 31.0533 29.0554 31.9333ZM27.0154 31.9333C27.0154 30.6693 26.7434 29.6773 26.1994 28.9573C25.6554 28.2213 24.9194 27.8533 23.9914 27.8533C23.0794 27.8533 22.3514 28.2213 21.8074 28.9573C21.2794 29.6773 21.0154 30.6693 21.0154 31.9333C21.0154 33.1813 21.2794 34.1733 21.8074 34.9093C22.3514 35.6293 23.0794 35.9893 23.9914 35.9893C24.9194 35.9893 25.6554 35.6293 26.1994 34.9093C26.7434 34.1733 27.0154 33.1813 27.0154 31.9333ZM32.5833 26.9653V37.5013H34.5513V28.2613C35.5593 27.9893 36.5513 27.8533 37.5273 27.8533C37.9913 27.8533 38.4153 27.8773 38.7993 27.9253C39.1993 27.9573 39.6553 28.0453 40.1673 28.1893L40.5273 26.4373C39.9673 26.3093 39.4553 26.2293 38.9913 26.1973C38.5273 26.1493 38.0393 26.1253 37.5273 26.1253C35.8633 26.1253 34.2153 26.4053 32.5833 26.9653ZM43.7193 26.6773C44.4393 26.5013 45.1513 26.3653 45.8553 26.2693C46.5753 26.1733 47.2472 26.1253 47.8712 26.1253C49.3592 26.1253 50.4792 26.5093 51.2312 27.2773C51.9992 28.0453 52.3832 29.2773 52.3832 30.9733V37.5013H50.4152V31.3333C50.4152 30.6133 50.3512 30.0293 50.2232 29.5813C50.0952 29.1333 49.9112 28.7893 49.6712 28.5493C49.4472 28.2933 49.1672 28.1173 48.8312 28.0213C48.5112 27.9253 48.1592 27.8773 47.7752 27.8773C47.4552 27.8773 47.1113 27.9013 46.7433 27.9493C46.3913 27.9813 46.0473 28.0293 45.7113 28.0933V37.5013H43.7193V26.6773ZM63.7112 27.5173C62.8952 26.5733 61.7352 26.1013 60.2312 26.1013C59.5752 26.1013 58.9352 26.2213 58.3112 26.4613C57.6872 26.7013 57.1272 27.0613 56.6312 27.5413C56.1352 28.0213 55.7352 28.6293 55.4312 29.3653C55.1272 30.1013 54.9752 30.9653 54.9752 31.9573C54.9752 32.7893 55.0952 33.5653 55.3352 34.2853C55.5752 34.9893 55.9352 35.5973 56.4152 36.1093C56.8952 36.6213 57.4952 37.0293 58.2152 37.3333C58.9512 37.6213 59.7992 37.7653 60.7592 37.7653C61.5432 37.7653 62.2472 37.6933 62.8712 37.5493C63.4952 37.4053 63.9272 37.2693 64.1671 37.1413L63.9031 35.4613C63.6472 35.5893 63.2712 35.7093 62.7752 35.8213C62.2792 35.9333 61.6792 35.9893 60.9752 35.9893C59.7432 35.9893 58.7832 35.6933 58.0952 35.1013C57.4232 34.4933 57.0472 33.6133 56.9672 32.4613H64.9351V31.7653C64.9351 29.8613 64.5271 28.4453 63.7112 27.5173ZM62.1752 28.6213C62.6712 29.1653 62.9192 29.9093 62.9192 30.8533H57.0152C57.0632 30.4693 57.1672 30.0933 57.3272 29.7253C57.4872 29.3573 57.7032 29.0293 57.9752 28.7413C58.2472 28.4533 58.5672 28.2213 58.9352 28.0453C59.3192 27.8693 59.7432 27.7813 60.2072 27.7813C61.0232 27.7813 61.6792 28.0613 62.1752 28.6213ZM74.1271 37.7653C73.4231 37.7653 72.8391 37.6693 72.3751 37.4773C71.9111 37.2853 71.5431 36.9973 71.2711 36.6133C70.9991 36.2293 70.8071 35.7573 70.6951 35.1973C70.5831 34.6213 70.5271 33.9573 70.5271 33.2053V22.6693H67.3111V20.9894H72.4951V33.2053C72.4951 33.7653 72.5271 34.2213 72.5911 34.5733C72.6711 34.9253 72.7831 35.2133 72.9271 35.4373C73.0871 35.6453 73.2791 35.7893 73.5031 35.8693C73.7271 35.9493 73.9911 35.9893 74.2951 35.9893C74.7591 35.9893 75.1911 35.9333 75.5911 35.8213C75.9911 35.7093 76.3031 35.5893 76.5271 35.4613L76.8151 37.1413C76.7191 37.1893 76.5831 37.2533 76.4071 37.3333C76.2311 37.3973 76.0231 37.4613 75.7831 37.5253C75.5431 37.5893 75.2791 37.6453 74.9911 37.6933C74.7191 37.7413 74.4311 37.7653 74.1271 37.7653ZM84.375 37.4773C84.839 37.6693 85.423 37.7653 86.127 37.7653C86.431 37.7653 86.719 37.7413 86.991 37.6933C87.279 37.6453 87.543 37.5893 87.783 37.5253C88.023 37.4613 88.231 37.3973 88.407 37.3333C88.583 37.2533 88.719 37.1893 88.815 37.1413L88.527 35.4613C88.303 35.5893 87.991 35.7093 87.591 35.8213C87.191 35.9333 86.759 35.9893 86.295 35.9893C85.991 35.9893 85.727 35.9493 85.503 35.8693C85.279 35.7893 85.087 35.6453 84.927 35.4373C84.783 35.2133 84.671 34.9253 84.591 34.5733C84.527 34.2213 84.495 33.7653 84.495 33.2053V20.9894H79.3111V22.6693H82.527V33.2053C82.527 33.9573 82.583 34.6213 82.695 35.1973C82.807 35.7573 82.999 36.2293 83.271 36.6133C83.543 36.9973 83.911 37.2853 84.375 37.4773ZM96.2309 26.1013C97.7349 26.1013 98.8949 26.5733 99.7109 27.5173C100.527 28.4453 100.935 29.8613 100.935 31.7653V32.4613H92.967C93.047 33.6133 93.423 34.4933 94.095 35.1013C94.783 35.6933 95.743 35.9893 96.9749 35.9893C97.6789 35.9893 98.2789 35.9333 98.7749 35.8213C99.2709 35.7093 99.6469 35.5893 99.9029 35.4613L100.167 37.1413C99.9269 37.2693 99.4949 37.4053 98.8709 37.5493C98.2469 37.6933 97.5429 37.7653 96.7589 37.7653C95.799 37.7653 94.951 37.6213 94.215 37.3333C93.495 37.0293 92.895 36.6213 92.415 36.1093C91.935 35.5973 91.575 34.9893 91.335 34.2853C91.095 33.5653 90.975 32.7893 90.975 31.9573C90.975 30.9653 91.127 30.1013 91.431 29.3653C91.735 28.6293 92.135 28.0213 92.631 27.5413C93.127 27.0613 93.687 26.7013 94.311 26.4613C94.935 26.2213 95.575 26.1013 96.2309 26.1013ZM98.9189 30.8533C98.9189 29.9093 98.6709 29.1653 98.1749 28.6213C97.6789 28.0613 97.0229 27.7813 96.207 27.7813C95.743 27.7813 95.319 27.8693 94.935 28.0453C94.567 28.2213 94.247 28.4533 93.975 28.7413C93.703 29.0293 93.487 29.3573 93.327 29.7253C93.167 30.0933 93.063 30.4693 93.015 30.8533H98.9189ZM109.935 33.7333C110.271 33.9893 110.439 34.3173 110.439 34.7173C110.439 35.6293 109.535 36.0853 107.727 36.0853C107.023 36.0853 106.359 36.0053 105.735 35.8453C105.127 35.6693 104.543 35.4533 103.983 35.1973L103.599 36.9973C104.175 37.2533 104.783 37.4453 105.423 37.5733C106.063 37.7013 106.767 37.7653 107.535 37.7653C109.231 37.7653 110.471 37.4933 111.255 36.9493C112.039 36.3893 112.431 35.6053 112.431 34.5973C112.431 33.9733 112.263 33.4613 111.927 33.0613C111.607 32.6453 111.199 32.2933 110.703 32.0053C110.207 31.7173 109.671 31.4773 109.095 31.2853C108.519 31.0773 107.983 30.8773 107.487 30.6853C106.991 30.4933 106.575 30.2853 106.239 30.0613C105.919 29.8213 105.759 29.5333 105.759 29.1973C105.759 28.2533 106.623 27.7813 108.351 27.7813C108.655 27.7813 108.967 27.7973 109.287 27.8293C109.623 27.8613 109.935 27.9093 110.223 27.9733C110.511 28.0213 110.767 28.0853 110.991 28.1653C111.215 28.2293 111.391 28.2933 111.519 28.3573L111.879 26.5813C111.415 26.4373 110.855 26.3253 110.199 26.2453C109.559 26.1493 108.935 26.1013 108.327 26.1013C106.775 26.1013 105.631 26.4053 104.895 27.0133C104.175 27.6053 103.815 28.3493 103.815 29.2453C103.815 29.8853 103.975 30.4053 104.295 30.8053C104.631 31.2053 105.039 31.5413 105.519 31.8133C106.015 32.0853 106.551 32.3173 107.127 32.5093C107.703 32.6853 108.231 32.8693 108.711 33.0613C109.207 33.2533 109.615 33.4773 109.935 33.7333Z" fill="#0000FF"/>
</svg>
